<?xml version="1.0" standalone="no"?><svg xmlns="http://www.w3.org/2000/svg" viewBox="0 0 1440 320"><path fill="#ff5500" fill-opacity="0.5" d="M0,192L36.9,0L73.8,32L110.8,320L147.7,64L184.6,64L221.5,128L258.5,288L295.4,256L332.3,0L369.2,32L406.2,256L443.1,192L480,224L516.9,0L553.8,96L590.8,288L627.7,256L664.6,224L701.5,320L738.5,320L775.4,192L812.3,224L849.2,96L886.2,288L923.1,32L960,256L996.9,224L1033.8,192L1070.8,0L1107.7,64L1144.6,256L1181.5,320L1218.5,32L1255.4,224L1292.3,128L1329.2,32L1366.2,192L1403.1,32L1440,160L1440,320L1403.1,320L1366.2,320L1329.2,320L1292.3,320L1255.4,320L1218.5,320L1181.5,320L1144.6,320L1107.7,320L1070.8,320L1033.8,320L996.9,320L960,320L923.1,320L886.2,320L849.2,320L812.3,320L775.4,320L738.5,320L701.5,320L664.6,320L627.7,320L590.8,320L553.8,320L516.9,320L480,320L443.1,320L406.2,320L369.2,320L332.3,320L295.4,320L258.5,320L221.5,320L184.6,320L147.7,320L110.8,320L73.8,320L36.9,320L0,320Z"></path></svg>